<svg xmlns="http://www.w3.org/2000/svg" width="24" height="24" viewBox="0 0 24 24">
  <metadata><?xpacket begin="﻿" id="W5M0MpCehiHzreSzNTczkc9d"?>
<x:xmpmeta xmlns:x="adobe:ns:meta/" x:xmptk="Adobe XMP Core 5.6-c140 79.160451, 2017/05/06-01:08:21        ">
   <rdf:RDF xmlns:rdf="http://www.w3.org/1999/02/22-rdf-syntax-ns#">
      <rdf:Description rdf:about=""/>
   </rdf:RDF>
</x:xmpmeta>
                                                                                                    
                                                                                                    
                                                                                                    
                                                                                                    
                                                                                                    
                                                                                                    
                                                                                                    
                                                                                                    
                                                                                                    
                                                                                                    
                                                                                                    
                                                                                                    
                                                                                                    
                                                                                                    
                                                                                                    
                                                                                                    
                                                                                                    
                                                                                                    
                                                                                                    
                                                                                                    
                           
<?xpacket end="w"?></metadata>
<defs>
    <style>
      .cls-1 {
        fill: #fff;
        fill-rule: evenodd;
      }
    </style>
  </defs>
  <g id="anhor">

    <path id="galery" class="cls-1" d="M45.893,87v4a3,3,0,0,1-2.987,3H28.969a3,3,0,0,1-2.987-3V77a3,3,0,0,1,2.987-3H42.907a3,3,0,0,1,2.987,3V87h0ZM43.9,91V87.414l-3.982-4L31.372,92H42.907A1,1,0,0,0,43.9,91Zm-1-15H28.969a1,1,0,0,0-1,1V91a0.994,0.994,0,0,0,.653.93l10.59-10.637a0.991,0.991,0,0,1,1.408,0L43.9,84.586V77A1,1,0,0,0,42.907,76ZM32.453,83a2.5,2.5,0,1,1,2.489-2.5A2.5,2.5,0,0,1,32.453,83Zm0-3a0.5,0.5,0,1,0,.5.5A0.5,0.5,0,0,0,32.453,80Z" transform="translate(-24 -72)"/>
    <path id="Parametr" class="cls-1" d="M43,94H40a1,1,0,1,1,0-2h3a1,1,0,0,0,1-1V88a1,1,0,0,1,2,0v3A3,3,0,0,1,43,94ZM32,94H29a3,3,0,0,1-3-3V88a1,1,0,0,1,2,0v3a1,1,0,0,0,1,1h3A1,1,0,1,1,32,94ZM45,81a1,1,0,0,1-1-1V77a1,1,0,0,0-1-1H40a1,1,0,1,1,0-2h3a3,3,0,0,1,3,3v3A1,1,0,0,1,45,81ZM27,81a1,1,0,0,1-1-1V77a3,3,0,0,1,3-3h3a1,1,0,1,1,0,2H29a1,1,0,0,0-1,1v3A1,1,0,0,1,27,81Z" transform="translate(-24 -72)"/>
    <path id="Descriptions" class="cls-1" d="M45,79H27a1,1,0,1,1,0-2H45A1,1,0,1,1,45,79ZM27,81H41a1,1,0,1,1,0,2H27A1,1,0,1,1,27,81Zm0,4H45a1,1,0,0,1,0,2H27A1,1,0,0,1,27,85Zm0,4H41a1,1,0,0,1,0,2H27A1,1,0,0,1,27,89Z" transform="translate(-24 -72)"/>
    <path id="map" class="cls-1" d="M47.5,90.835l-7,3.985c-0.014.008-.031,0-0.046,0.012a0.925,0.925,0,0,1-.871.02c-0.009,0-.019,0-0.027-0.006L32.031,91.1,25.5,94.82a1,1,0,0,1-1.5-.865V78.015a1,1,0,0,1,.5-0.865l7-3.985c0.015-.009.033-0.006,0.048-0.013a0.982,0.982,0,0,1,.352-0.1c0.028,0,.053-0.016.08-0.016,0.005,0,.01,0,0.015,0a0.987,0.987,0,0,1,.42.1c0.009,0,.018,0,0.027.006l7.522,3.747L46.5,73.165a1,1,0,0,1,1.5.865V89.97A1,1,0,0,1,47.5,90.835ZM31,75.747l-5,2.846V92.238l5-2.846V75.747Zm2,13.607,6,2.989V78.631l-6-2.989V89.354ZM46,75.747l-5,2.847V92.238l5-2.846V75.747Z" transform="translate(-24 -72)"/>


  </g>
</svg>
