<svg xmlns="http://www.w3.org/2000/svg">


    <symbol id="icon-70-1" viewBox="0 0 70 70">
        <title>icon-1</title>
        <path id="room" class="cls-1" d="M66,54a1,1,0,0,1,1,1v8a1,1,0,0,1-1,1H65v2H63V64H55v2H53V64H52a1,1,0,0,1-1-1V55a1,1,0,0,1,1-1h4V44H51l4-12h8l4,12H62V54h4ZM64,42l-3-8H57l-3,8H64Zm-6,2V54h2V44H58ZM56,56H53v6H65V56H56Zm1,2h4v2H57V58ZM45,66H5a2,2,0,0,1-2-2V50a2,2,0,0,1,2-2H9V44a2,2,0,0,1,2-2H24a1.979,1.979,0,0,1,1,.278A1.979,1.979,0,0,1,26,42H40a2,2,0,0,1,2,2v4h3a2,2,0,0,1,2,2V64A2,2,0,0,1,45,66ZM24,45a1,1,0,0,0-1-1H12a1,1,0,0,0-1,1v3H24V45Zm16,0a1,1,0,0,0-1-1H27a1,1,0,0,0-1,1v3H40V45Zm5,6a1,1,0,0,0-1-1H6a1,1,0,0,0-1,1v7H45V51Zm0,9H5v3a1,1,0,0,0,1,1H44a1,1,0,0,0,1-1V60Z"/>
    </symbol>



    <symbol id="icon-70-2" viewBox="0 0 70 70">
        <title>icon-2</title>
        <path id="hotel" class="cls-1" d="M46,66H6V13H64V66H46ZM26,64H44V58H26v6ZM62,15H8V64H24V56H46v8H62V15ZM42,29V19h6v2H44v2h4v2H44v2h4v2H42Zm10-2h4v2H50V19h2v8Zm4,12H50V33h6v6Zm0,12H50V45h6v6ZM38,29H36V21H34V19h6v2H38v8ZM26,45h6v6H26V45Zm0-12h6v6H26V33Zm4-12h2v6H30V21Zm0,8H26V27h4v2Zm-6-2V21h2v6H24Zm2-8h4v2H26V19Zm-6,6H16v4H14V19h2v4h4V19h2V29H20V25Zm0,14H14V33h6v6Zm0,12H14V45h6v6ZM44,39H38V33h6v6Zm0,12H38V45h6v6Z"/>    </symbol>


    <symbol id="icon-70-3" viewBox="0 0 70 70">
        <title>icon-3</title>
        <path id="apartaments" class="cls-1" d="M65.574,36.02L63,34.343V66H61V33.039L35.061,16.131,9,33.234V66H7V34.546L3.707,36.707,2.293,35.293,7,32.2V32H7.311L34.293,14.293,34.7,14.7l0.723-.723L67.02,34.574ZM19,46h7V41a1,1,0,0,1,1-1H43a1,1,0,0,1,1,1v5h7a1,1,0,0,1,1,1V62H50v4H40V62H30v4H20V62H19a1,1,0,0,1-1-1V47A1,1,0,0,1,19,46Zm23,6V42H28V54H42V52Zm0,12h6V62H42v2ZM22,64h6V62H22v2Zm-2-4H50V48H44v8H26V48H20V60Z"/>
    </symbol>


    <symbol id="icon-70-4" viewBox="0 0 70 70">
        <title>icon-4</title>
        <path id="office" class="cls-1" d="M59,40.062v26H57v-26H47v26H45v-26H31v-2H61v2H59Zm-6-18H50.764l-2.8,10.263L46.035,31.8,49,20.928V20.062h0.236L52.035,9.8l1.929,0.526-2.655,9.737H55v16H53v-14Zm-22,13.5-6-4.5v14.5a2.512,2.512,0,0,1-.05.5H35v18h4v2H33v-18H17.5a2.5,2.5,0,0,1-2.5-2.5v-15a2.5,2.5,0,0,1,2.5-2.5h5a2.488,2.488,0,0,1,1.727.7l0.373-.5,7.734,5.8H41v2H31v-0.5Zm-8-4a1.5,1.5,0,0,0-1.5-1.5h-3a1.5,1.5,0,0,0-1.5,1.5v13a1.5,1.5,0,0,0,1.5,1.5h3a1.5,1.5,0,0,0,1.5-1.5v-13ZM22.5,25A5.5,5.5,0,1,1,28,19.5,5.5,5.5,0,0,1,22.5,25Zm0-9A3.5,3.5,0,1,0,26,19.5,3.5,3.5,0,0,0,22.5,16ZM29,54.063H19v6h4v6H21v-4H15v4H13v-6h4v-6H9v-20h2v18H29v2Z"/>
    </symbol>


    <symbol id="icon-70-5" viewBox="0 0 70 70">
        <title>icon-5</title>
        <path id="shop" class="cls-1" d="M63,29v5H62.975a6.5,6.5,0,0,1-3.017,5h0.2A3.721,3.721,0,0,1,60,40V64a2,2,0,0,1-2,2H12a2,2,0,0,1-2-2V39.493A6.5,6.5,0,0,1,6.025,34H6V29H6.01c0-.579-0.01-1-0.01-1a0.793,0.793,0,0,1,.041-0.085l0.329-.486,6.636-11.17,0.57-.866C13.582,15.382,13.987,15,14,15H55c0.012,0,.994-0.01,1,0l0.847,1.259L63.271,29H63ZM17.992,45.375v18L18,64h9.62A3.462,3.462,0,0,0,28,64V44c0-.022-0.951-0.013,0,0H18C17.978,44,17.992,45.353,17.992,45.375ZM12,64h4V44a2,2,0,0,1,2-2H28c1.227,0.452,2.037.688,2,2V64s-0.066-.619-0.066-0.616A5.343,5.343,0,0,0,30,64H57s1,0.022,1,0V39.806a6.376,6.376,0,0,1-7-2.853A6.545,6.545,0,0,1,48.937,39h0.387a7.093,7.093,0,0,1-1.035.356A6.451,6.451,0,0,1,40,36.953a6.471,6.471,0,0,1-8.581,2.261A7.4,7.4,0,0,1,30.59,39h0.473A6.545,6.545,0,0,1,29,36.953a6.433,6.433,0,0,1-6.456,2.971A5.857,5.857,0,0,1,18.631,39h1.432A6.545,6.545,0,0,1,18,36.953,6.489,6.489,0,0,1,12.5,40c-0.171,0-.332-0.035-0.5-0.048V64ZM55,17a1.068,1.068,0,0,1-1,0H15L8.245,29H8v5H8.029a4.5,4.5,0,0,0,8.941,0h2.059a4.5,4.5,0,0,0,8.941,0h2.059a4.5,4.5,0,0,0,8.941,0h2.059a4.5,4.5,0,0,0,8.941,0h2.059a4.5,4.5,0,0,0,8.941,0H61V29h0ZM36,42H52a2,2,0,0,1,2,2v9a2,2,0,0,1-2,2H36c-1.1,0-2.079-.52-2.079-1.625L34,44A2,2,0,0,1,36,42Zm0,11H52l-0.136-7.625c0-.022.158-1.375,0.136-1.375H36c-0.022,0-.086,1.353-0.086,1.375ZM28,64H27.62C27.222,63.99,26.8,63.97,28,64Z"/>
    </symbol>


    <symbol id="icon-70-6" viewBox="0 0 70 70">
        <title>icon-6</title>
        <path id="bruto" class="cls-1" d="M64,48.084L64,48.1V64.083h0L64,64.1V65H63.7l-0.338,1.011L45.88,60.21,29.608,61.852l-0.033.155L29.115,61.9,28.192,62l-0.031-.313L12,57.965,12.209,57H12V48.965C12.227,48.985,12.455,49,12.688,49A8.007,8.007,0,0,0,14,48.883v7.471l14,3.221V47h2V59.8l15.56-1.57,0.081-.244L46,58.108V46h2V58.772l14,4.647V49.561L50,45.577V43.436l12,3.983V33.56L50,29.577V27.436l12,3.983V21.561L53.982,18.9a7.941,7.941,0,0,0,.754-1.892L64,20.084,63.7,21H64V32.083h0L64,32.1V48.083h0ZM46,25V22.931a7.27,7.27,0,0,0,2,0V26H46V25Zm0,5.2V28h2v4H46V30.2Zm2,12.574V44H46V40h2v2.772ZM46,34h2v4H46V34Zm1-13a6,6,0,1,1,6-6A6,6,0,0,1,47,21Zm0-10a4,4,0,1,0,4,4A4,4,0,0,0,47,11ZM39.688,44.835v-2.01L44,42.389V44H40v0.8ZM34,45.409V45H32V43.6l5.687-.574v2.01ZM30,43.8V45H28V43h2v0.8ZM26,45H24.194l-4.113-.946A7.944,7.944,0,0,0,20.6,42.1L26,43.345V45Zm4-27.187V29.8L44,28.39V30.4L30,31.813V41H28V31.646L14,28.425v4.692A8.007,8.007,0,0,0,12.688,33c-0.232,0-.46.015-0.687,0.035V13h0.209l0.216-1.008L29.3,15.874l9.707-.98C39,14.929,39,14.964,39,15a7.992,7.992,0,0,0,.232,1.881Zm-2-.167-14-3.22v11.93l14,3.221V17.645ZM19,41a6,6,0,1,1-6-6A6,6,0,0,1,19,41ZM9,41a4,4,0,1,0,4-4A4,4,0,0,0,9,41Z"/>
    </symbol>


    <symbol id="icon-70-7" viewBox="0 0 70 70">
        <title>icon-7</title>
        <path id="rule" class="cls-1" d="M57,18H53v4H51V18H47v4H45V18H41v4H39V18H35v4H33V18H29v4H27V18H23v8H21V16H59V26H57V18ZM39.984,29.74l1.345-1.48,20,16-1.346,1.48L57,43.353V64H27V43.033L22.053,46.99l-1.381-1.514,19.494-15.59ZM29,41.434V62H55V41.753L41.8,31.2ZM9,64V28H19v2H11v4h4v2H11v4h4v2H11v4h4v2H11v4h4v2H11v4h4v2H11v4h8v2H9V64Z"/>
    </symbol>


</svg>
