<svg xmlns="http://www.w3.org/2000/svg" width="101" height="67" viewBox="0 0 101 67">
  <metadata><?xpacket begin="﻿" id="W5M0MpCehiHzreSzNTczkc9d"?>
<x:xmpmeta xmlns:x="adobe:ns:meta/" x:xmptk="Adobe XMP Core 5.6-c140 79.160451, 2017/05/06-01:08:21        ">
   <rdf:RDF xmlns:rdf="http://www.w3.org/1999/02/22-rdf-syntax-ns#">
      <rdf:Description rdf:about=""/>
   </rdf:RDF>
</x:xmpmeta>
                                                                                                    
                                                                                                    
                                                                                                    
                                                                                                    
                                                                                                    
                                                                                                    
                                                                                                    
                                                                                                    
                                                                                                    
                                                                                                    
                                                                                                    
                                                                                                    
                                                                                                    
                                                                                                    
                                                                                                    
                                                                                                    
                                                                                                    
                                                                                                    
                                                                                                    
                                                                                                    
                           
<?xpacket end="w"?></metadata>
<defs>
    <style>
      .cls-1 {
        fill: #01244e;
        fill-rule: evenodd;
      }
    </style>
  </defs>
  <path id="logo" class="cls-1" d="M215,50a7.831,7.831,0,0,1,7.99,7.607L223,63H184V37l4.571-7.995V28.5L202.941,4h18.284V8.524A7.248,7.248,0,0,1,214,16H199V26h14V38l-13.974,0L199,38V50h16ZM163.424,4h22.8l-11.4,21.017ZM166,38V63H151L137,39.279V55a8.176,8.176,0,0,1-8,8h-7l0-59,14.628,0,0,0V4H137V4.779L151,34.13V12ZM124.437,70.374h0.013c-0.013-.361-0.033-1.077-0.033-1.545v-2.87h0.4v4.946h-0.543c-1.635-3.812-1.772-4.188-1.883-4.521h-0.013c0.013,0.241.019,0.822,0.019,1.233v3.288H122V65.959h0.615C124.188,69.637,124.319,69.991,124.437,70.374Zm3.682-2.034h0.013c0.118-.269.419-0.928,1.119-2.381h0.464l-1.386,2.785v2.161H127.91V68.758l-1.406-2.8h0.484C127.707,67.412,128,68.071,128.119,68.34Zm5.272-1.991h-1.57v1.786h1.485v0.39h-1.485V70.5h1.622v0.4h-2.034V65.959h1.982v0.39Zm2.714,2.182a1.42,1.42,0,0,1-.935-1.368,1.2,1.2,0,0,1,1.223-1.29,1.858,1.858,0,0,1,.785.156l-0.052.439a1.458,1.458,0,0,0-.72-0.192,0.8,0.8,0,0,0-.811.836,1.089,1.089,0,0,0,.759,1.02,1.552,1.552,0,0,1,.994,1.438,1.281,1.281,0,0,1-1.3,1.417,2.022,2.022,0,0,1-.863-0.184l0.046-.468a1.6,1.6,0,0,0,.8.227,0.839,0.839,0,0,0,.876-0.936A1.18,1.18,0,0,0,136.1,68.531Zm4.716-2.572,1.491,4.946h-0.451l-0.4-1.353h-1.811l-0.412,1.353h-0.425l1.53-4.946h0.477Zm0.536,3.2c-0.595-2.055-.712-2.523-0.778-2.827h-0.013c-0.065.3-.19,0.772-0.811,2.827h1.6Zm4.049,0.857h0.013c0.046-.255.19-0.928,0.955-4.06h0.876l-1.366,4.946H144.9l-1.354-4.946h0.909C145.23,69.1,145.367,69.764,145.406,70.019Zm5.3-4.06,1.465,4.946h-0.883l-0.32-1.183h-1.531l-0.34,1.183h-0.837l1.5-4.946H150.7ZM150.8,69.02c-0.406-1.5-.517-1.984-0.576-2.31h-0.013c-0.059.326-.177,0.808-0.608,2.31h1.2Zm3.865,1.162h1.459v0.723h-2.309V65.959h0.85v4.223Zm4.631-4.316c1.157,0,1.818,1.02,1.818,2.551,0,1.6-.661,2.579-1.844,2.579s-1.844-.985-1.844-2.537S158.1,65.867,159.292,65.867Zm-0.026,4.394c0.6,0,.968-0.694.968-1.807,0-1.183-.354-1.871-0.968-1.871s-0.975.7-.975,1.857C158.291,69.559,158.651,70.26,159.266,70.26Zm6.514-3a1.127,1.127,0,0,1-.9,1.176v0.007a0.882,0.882,0,0,1,.6.751l0.543,1.708h-0.9l-0.438-1.474a0.65,0.65,0,0,0-.706-0.638h-0.164v2.112h-0.837V65.959h0.988C164.976,65.959,165.78,66.172,165.78,67.263Zm-1.975.872h0.216a0.749,0.749,0,0,0,.915-0.758c0-.539-0.346-0.723-0.961-0.723h-0.17v1.481Zm6.377-1.453h-1.576v1.332h1.484v0.709h-1.484v1.453h1.661v0.73h-2.5V65.959h2.413v0.723Zm2.786,2.013a1.46,1.46,0,0,1-1.007-1.417,1.353,1.353,0,0,1,1.459-1.41,2.471,2.471,0,0,1,.954.17l-0.072.751a1.658,1.658,0,0,0-.817-0.206,0.6,0.6,0,0,0-.667.6,0.9,0.9,0,0,0,.713.808,1.573,1.573,0,0,1,1.066,1.474A1.437,1.437,0,0,1,173.067,71a2.842,2.842,0,0,1-1.073-.2l0.072-.8a2.013,2.013,0,0,0,.955.248,0.627,0.627,0,0,0,.706-0.659A1.008,1.008,0,0,0,172.968,68.694Zm5.305-2.778a2.131,2.131,0,0,1,.582.078l-0.033.425a1.568,1.568,0,0,0-.53-0.092c-1.007,0-1.523.978-1.523,2.083,0,1.254.6,2.119,1.517,2.119a1.4,1.4,0,0,0,.543-0.1l0.032,0.432a2.175,2.175,0,0,1-.575.085c-1.21,0-1.969-1.013-1.969-2.544C176.317,66.937,177.083,65.916,178.273,65.916Zm3.767-.043c1.014,0,1.583,1,1.583,2.523,0,1.6-.563,2.593-1.622,2.593-1.04,0-1.622-1-1.622-2.551C180.379,66.859,180.968,65.874,182.04,65.874ZM182,70.572c0.752,0,1.177-.858,1.177-2.147s-0.405-2.147-1.17-2.147-1.191.886-1.191,2.133C180.817,69.715,181.242,70.572,182,70.572Zm5.893-3.359a1.131,1.131,0,0,1-.974,1.191v0.014a0.812,0.812,0,0,1,.627.68l0.628,1.807h-0.464l-0.556-1.651a0.775,0.775,0,0,0-.85-0.673h-0.262v2.324h-0.418V65.959h0.667C187.227,65.959,187.894,66.214,187.894,67.213Zm-1.851-.864v1.863h0.282a0.944,0.944,0,0,0,1.131-.971c0-.673-0.419-0.893-1.223-0.893h-0.19Zm6.24,0.978a1.4,1.4,0,0,1-1.655,1.417h-0.2v2.161h-0.419V65.959h0.654C191.5,65.959,192.283,66.193,192.283,67.327Zm-1.864-.978v2.005h0.163a1.023,1.023,0,0,0,1.263-1.027,0.987,0.987,0,0,0-1.223-.978h-0.2Zm5.226-.475c1.013,0,1.582,1,1.582,2.523,0,1.6-.562,2.593-1.622,2.593-1.039,0-1.621-1-1.621-2.551C193.984,66.859,194.572,65.874,195.645,65.874Zm-0.04,4.7c0.753,0,1.178-.858,1.178-2.147s-0.406-2.147-1.171-2.147-1.19.886-1.19,2.133C194.422,69.715,194.847,70.572,195.605,70.572Zm5.893-3.359a1.131,1.131,0,0,1-.974,1.191v0.014a0.813,0.813,0,0,1,.628.68l0.628,1.807h-0.465l-0.555-1.651a0.776,0.776,0,0,0-.851-0.673h-0.261v2.324h-0.419V65.959H199.9C200.831,65.959,201.5,66.214,201.5,67.213Zm-1.85-.864v1.863h0.281a0.944,0.944,0,0,0,1.131-.971c0-.673-0.418-0.893-1.223-0.893h-0.189Zm5.494-.39,1.491,4.946h-0.452l-0.4-1.353h-1.812l-0.412,1.353h-0.425l1.53-4.946h0.478Zm0.536,3.2c-0.595-2.055-.713-2.523-0.778-2.827h-0.013c-0.066.3-.19,0.772-0.811,2.827h1.6Zm4.369-3.245a2.126,2.126,0,0,1,.582.078l-0.033.425a1.567,1.567,0,0,0-.529-0.092c-1.007,0-1.524.978-1.524,2.083,0,1.254.6,2.119,1.517,2.119a1.4,1.4,0,0,0,.543-0.1l0.033,0.432a2.183,2.183,0,0,1-.576.085c-1.21,0-1.968-1.013-1.968-2.544C208.092,66.937,208.857,65.916,210.047,65.916Zm2.885,4.989h-0.419V65.959h0.419v4.946Zm3.434-5.315,0.516-1.006h0.445l-0.68,1.006h-0.281Zm0.235,0.284c1.014,0,1.582,1,1.582,2.523,0,1.6-.562,2.593-1.621,2.593-1.04,0-1.622-1-1.622-2.551C214.94,66.859,215.528,65.874,216.6,65.874Zm-0.039,4.7c0.752,0,1.177-.858,1.177-2.147s-0.406-2.147-1.171-2.147-1.19.886-1.19,2.133C215.378,69.715,215.8,70.572,216.562,70.572Zm6.056-.2h0.013c-0.013-.361-0.033-1.077-0.033-1.545v-2.87H223v4.946h-0.542c-1.635-3.812-1.773-4.188-1.884-4.521h-0.013c0.013,0.241.02,0.822,0.02,1.233v3.288h-0.393V65.959H220.8C222.37,69.637,222.5,69.991,222.618,70.374Z" transform="translate(-122 -4)"/>
</svg>
