<svg xmlns="http://www.w3.org/2000/svg"><symbol id="icon-70-1" viewBox="0 0 70 70"><title>icon-1</title><path id="room" class="cls-1" d="M66 40a1 1 0 0 1 1 1v8a1 1 0 0 1-1 1h-1v2h-2v-2h-8v2h-2v-2h-1a1 1 0 0 1-1-1v-8a1 1 0 0 1 1-1h4V30h-5l4-12h8l4 12h-5v10h4zm-2-12l-3-8h-4l-3 8h10zm-6 2v10h2V30h-2zm-2 12h-3v6h12v-6h-9zm1 2h4v2h-4v-2zm-12 8H5a2 2 0 0 1-2-2V36a2 2 0 0 1 2-2h4v-4a2 2 0 0 1 2-2h13a1.979 1.979 0 0 1 1 .277A1.979 1.979 0 0 1 26 28h14a2 2 0 0 1 2 2v4h3a2 2 0 0 1 2 2v14a2 2 0 0 1-2 2zM24 31a1 1 0 0 0-1-1H12a1 1 0 0 0-1 1v3h13v-3zm16 0a1 1 0 0 0-1-1H27a1 1 0 0 0-1 1v3h14v-3zm5 6a1 1 0 0 0-1-1H6a1 1 0 0 0-1 1v7h40v-7zm0 9H5v3a1 1 0 0 0 1 1h38a1 1 0 0 0 1-1v-3z"/></symbol><symbol id="icon-70-2" viewBox="0 0 70 70"><title>icon-2</title><path id="hotel" class="cls-1" d="M46 66H6V13h58v53H46zm-20-2h18v-6H26v6zm36-49H8v49h16v-8h22v8h16V15zM42 29V19h6v2h-4v2h4v2h-4v2h4v2h-6zm10-2h4v2h-6V19h2v8zm4 12h-6v-6h6v6zm0 12h-6v-6h6v6zM38 29h-2v-8h-2v-2h6v2h-2v8zM26 45h6v6h-6v-6zm0-12h6v6h-6v-6zm4-12h2v6h-2v-6zm0 8h-4v-2h4v2zm-6-2v-6h2v6h-2zm2-8h4v2h-4v-2zm-6 6h-4v4h-2V19h2v4h4v-4h2v10h-2v-4zm0 14h-6v-6h6v6zm0 12h-6v-6h6v6zm24-12h-6v-6h6v6zm0 12h-6v-6h6v6z"/></symbol><symbol id="icon-70-3" viewBox="0 0 70 70"><title>icon-3</title><path id="apartaments" class="cls-1" d="M65.574 36.02L63 34.343V66h-2V33.039L35.061 16.131 9 33.234V66H7V34.546l-3.293 2.161-1.414-1.414L7 32.2V32h.311l26.982-17.707.407.407.723-.723L67.02 34.574zM19 46h7v-5a1 1 0 0 1 1-1h16a1 1 0 0 1 1 1v5h7a1 1 0 0 1 1 1v15h-2v4H40v-4H30v4H20v-4h-1a1 1 0 0 1-1-1V47a1 1 0 0 1 1-1zm23 6V42H28v12h14v-2zm0 12h6v-2h-6v2zm-20 0h6v-2h-6v2zm-2-4h30V48h-6v8H26v-8h-6v12z"/></symbol><symbol id="icon-70-4" viewBox="0 0 70 70"><title>icon-4</title><path id="office" class="cls-1" d="M59 40.062v26h-2v-26H47v26h-2v-26H31v-2h30v2h-2zm-6-18h-2.236l-2.8 10.263-1.929-.525L49 20.928v-.866h.236L52.035 9.8l1.929.526-2.655 9.737H55v16h-2v-14zm-22 13.5l-6-4.5v14.5a2.512 2.512 0 0 1-.05.5H35v18h4v2h-6v-18H17.5a2.5 2.5 0 0 1-2.5-2.5v-15a2.5 2.5 0 0 1 2.5-2.5h5a2.488 2.488 0 0 1 1.727.7l.373-.5 7.734 5.8H41v2H31v-.5zm-8-4a1.5 1.5 0 0 0-1.5-1.5h-3a1.5 1.5 0 0 0-1.5 1.5v13a1.5 1.5 0 0 0 1.5 1.5h3a1.5 1.5 0 0 0 1.5-1.5v-13zM22.5 25a5.5 5.5 0 1 1 5.5-5.5 5.5 5.5 0 0 1-5.5 5.5zm0-9a3.5 3.5 0 1 0 3.5 3.5 3.5 3.5 0 0 0-3.5-3.5zM29 54.063H19v6h4v6h-2v-4h-6v4h-2v-6h4v-6H9v-20h2v18h18v2z"/></symbol><symbol id="icon-70-5" viewBox="0 0 70 70"><title>icon-5</title><path id="shop" class="cls-1" d="M63 29v5h-.025a6.5 6.5 0 0 1-3.017 5h.2A3.721 3.721 0 0 1 60 40v24a2 2 0 0 1-2 2H12a2 2 0 0 1-2-2V39.493A6.5 6.5 0 0 1 6.025 34H6v-5h.01c0-.579-.01-1-.01-1a.793.793 0 0 1 .041-.085l.329-.486 6.636-11.17.57-.866c.006-.011.411-.393.424-.393h41c.012 0 .994-.01 1 0l.847 1.259L63.271 29H63zM17.992 45.375v18L18 64h9.62a3.462 3.462 0 0 0 .38 0V44c0-.022-.951-.013 0 0H18c-.022 0-.008 1.353-.008 1.375zM12 64h4V44a2 2 0 0 1 2-2h10c1.227.452 2.037.688 2 2v20l-.066-.616A5.343 5.343 0 0 0 30 64h27s1 .022 1 0V39.806a6.376 6.376 0 0 1-7-2.853A6.545 6.545 0 0 1 48.937 39h.387a7.093 7.093 0 0 1-1.035.356A6.451 6.451 0 0 1 40 36.953a6.471 6.471 0 0 1-8.581 2.261A7.4 7.4 0 0 1 30.59 39h.473A6.545 6.545 0 0 1 29 36.953a6.433 6.433 0 0 1-6.456 2.971A5.857 5.857 0 0 1 18.631 39h1.432A6.545 6.545 0 0 1 18 36.953 6.489 6.489 0 0 1 12.5 40c-.171 0-.332-.035-.5-.048V64zm43-47a1.068 1.068 0 0 1-1 0H15L8.245 29H8v5h.029a4.5 4.5 0 0 0 8.941 0h2.059a4.5 4.5 0 0 0 8.941 0h2.059a4.5 4.5 0 0 0 8.941 0h2.059a4.5 4.5 0 0 0 8.941 0h2.059a4.5 4.5 0 0 0 8.941 0H61v-5zM36 42h16a2 2 0 0 1 2 2v9a2 2 0 0 1-2 2H36c-1.1 0-2.079-.52-2.079-1.625L34 44a2 2 0 0 1 2-2zm0 11h16l-.136-7.625c0-.022.158-1.375.136-1.375H36c-.022 0-.086 1.353-.086 1.375zm-8 11h-.38c-.398-.01-.82-.03.38 0z"/></symbol><symbol id="icon-70-6" viewBox="0 0 70 70"><title>icon-6</title><path id="rule" class="cls-1" d="M57 18h-4v4h-2v-4h-4v4h-2v-4h-4v4h-2v-4h-4v4h-2v-4h-4v4h-2v-4h-4v8h-2V16h38v10h-2v-8zM39.984 29.74l1.345-1.48 20 16-1.346 1.48L57 43.353V64H27V43.033l-4.947 3.957-1.381-1.514 19.494-15.59zM29 41.434V62h26V41.753L41.8 31.2zM9 64V28h10v2h-8v4h4v2h-4v4h4v2h-4v4h4v2h-4v4h4v2h-4v4h4v2h-4v4h8v2H9v-2z"/></symbol><symbol id="icon-70-7" viewBox="0 0 70 70"><title>icon-7</title><path id="bruto" class="cls-1" d="M64 48.084V65h-.3l-.338 1.011L45.88 60.21l-16.272 1.642-.033.155-.46-.107-.923.1-.031-.313L12 57.965l.209-.965H12v-8.035c.227.02.455.035.688.035A8.007 8.007 0 0 0 14 48.883v7.471l14 3.221V47h2v12.8l15.56-1.57.081-.244.359.122V46h2v12.772l14 4.647V49.561l-12-3.984v-2.141l12 3.983V33.56l-12-3.983v-2.141l12 3.983v-9.858L53.982 18.9a7.941 7.941 0 0 0 .754-1.892L64 20.084l-.3.916h.3v27.083zM46 25v-2.069a7.27 7.27 0 0 0 2 0V26h-2v-1zm0 5.2V28h2v4h-2v-1.8zm2 12.574V44h-2v-4h2v2.772zM46 34h2v4h-2v-4zm1-13a6 6 0 1 1 6-6 6 6 0 0 1-6 6zm0-10a4 4 0 1 0 4 4 4 4 0 0 0-4-4zm-7.312 33.835v-2.01L44 42.389V44h-4v.8zM34 45.409V45h-2v-1.4l5.687-.574v2.01zM30 43.8V45h-2v-2h2v.8zM26 45h-1.806l-4.113-.946A7.944 7.944 0 0 0 20.6 42.1l5.4 1.245V45zm4-27.187V29.8l14-1.41v2.01l-14 1.413V41h-2v-9.354l-14-3.221v4.692A8.007 8.007 0 0 0 12.688 33c-.232 0-.46.015-.687.035V13h.209l.216-1.008L29.3 15.874l9.707-.98C39 14.929 39 14.964 39 15a7.992 7.992 0 0 0 .232 1.881zm-2-.167l-14-3.22v11.93l14 3.221V17.645zM19 41a6 6 0 1 1-6-6 6 6 0 0 1 6 6zM9 41a4 4 0 1 0 4-4 4 4 0 0 0-4 4z"/></symbol><symbol id="icon-22-1" viewBox="0 0 22 22"><title>icon-8</title><path id="Arrow" class="cls-1" d="M10.5 21A10.5 10.5 0 1 1 21 10.5 10.5 10.5 0 0 1 10.5 21zm0-20a9.5 9.5 0 1 0 9.5 9.5A9.5 9.5 0 0 0 10.5 1zm.5 16h-.268l-.016.016L10.7 17h-.4l.2-.2-.5-.5.5-.5-.5-.5V5h1v10.3l3.3-3.3.716.716L11 16.732V17zm-1-.268l-4.016-4.016L6.7 12l3.3 3.3v1.432zm.284.284L10.268 17h.032zM10 17v-.268l.268.268H10z"/></symbol><symbol id="icon-22-2" viewBox="0 0 22 22"><title>icon-9</title><path id="PDF" class="cls-1" d="M18.6 6.655l-4.544-5.549a.427.427 0 0 0-.3-.1h-8.4c-1.187 0-2.373.605-2.373 1.816v15.856A2.566 2.566 0 0 0 5.358 21h11.66a2.137 2.137 0 0 0 1.875-2.32V7.059c-.093-.101-.193-.303-.293-.404zm-5.039-4.843l4.248 5.247L15.91 7a2.018 2.018 0 0 1-1.988-2l-.262-3.188h-.1zM18 19a1.076 1.076 0 0 1-1 1l-12.023.008a.94.94 0 0 1-.994-.885.927.927 0 0 1 0-.116L3.974 3.022A1.118 1.118 0 0 1 5 2h8v3a3.4 3.4 0 0 0 3 3h2v11zm-5.13-6.749a27.728 27.728 0 0 1-2.426-3.372 16.625 16.625 0 0 0 .23-2.218c0-2.218-2.2-2.218-2.2 0a7.229 7.229 0 0 0 1.063 2.484c-.3 1.509-.682 3.372-1.136 4.881a7.721 7.721 0 0 0-1.969 1.33 1.73 1.73 0 0 0-.379 1.775 1.337 1.337 0 0 0 1.136.887.9.9 0 0 0 .757-.355c.151-.177.454-.532 1.212-2.929a32.826 32.826 0 0 1 3.484-1.334 3.493 3.493 0 0 0 2.121 1.331 1.145 1.145 0 0 0 1.14-1.15v-.093a1.277 1.277 0 0 0-.606-1.065 2.488 2.488 0 0 0-1.515-.355c-.082.006-.456.095-.912.183zm-5.529 4.7a.145.145 0 0 1-.151.089.416.416 0 0 1-.3-.266.691.691 0 0 1 .151-.71 5.61 5.61 0 0 1 .909-.71 4.924 4.924 0 0 1-.611 1.6zm2.12-10.29a.905.905 0 0 1 .151-.71.585.585 0 0 1 .228.621 3.885 3.885 0 0 1-.076.888 3.6 3.6 0 0 1-.303-.799zm0 6.833c.3-1.064.53-2.218.757-3.283a17.28 17.28 0 0 0 1.667 2.306c-.685.266-1.515.621-2.424.976zm5.606 0a.283.283 0 0 1-.3.266 1.9 1.9 0 0 1-1.06-.621h.151a1.9 1.9 0 0 1 1.058.266c.075-.005.151-.005.151.088z"/></symbol><symbol id="icon-24-1" viewBox="0 0 24 24"><title>gallery</title><path id="galery" class="cls-1" d="M45.893 87v4a3 3 0 0 1-2.987 3H28.969a3 3 0 0 1-2.987-3V77a3 3 0 0 1 2.987-3h13.938a3 3 0 0 1 2.987 3v10zM43.9 91v-3.586l-3.982-4L31.372 92h11.535a1 1 0 0 0 .993-1zm-1-15H28.969a1 1 0 0 0-1 1v14a.994.994 0 0 0 .653.93l10.59-10.637a.991.991 0 0 1 1.408 0l3.28 3.293V77a1 1 0 0 0-.993-1zm-10.447 7a2.5 2.5 0 1 1 2.489-2.5 2.5 2.5 0 0 1-2.489 2.5zm0-3a.5.5 0 1 0 .5.5.5.5 0 0 0-.5-.5z" transform="translate(-24 -72)"/></symbol><symbol id="icon-24-2" viewBox="0 0 24 24"><title>Parametr</title><path id="Parametr" class="cls-1" d="M43 94h-3a1 1 0 1 1 0-2h3a1 1 0 0 0 1-1v-3a1 1 0 0 1 2 0v3a3 3 0 0 1-3 3zm-11 0h-3a3 3 0 0 1-3-3v-3a1 1 0 0 1 2 0v3a1 1 0 0 0 1 1h3a1 1 0 1 1 0 2zm13-13a1 1 0 0 1-1-1v-3a1 1 0 0 0-1-1h-3a1 1 0 1 1 0-2h3a3 3 0 0 1 3 3v3a1 1 0 0 1-1 1zm-18 0a1 1 0 0 1-1-1v-3a3 3 0 0 1 3-3h3a1 1 0 1 1 0 2h-3a1 1 0 0 0-1 1v3a1 1 0 0 1-1 1z" transform="translate(-24 -72)"/></symbol><symbol id="icon-24-3" viewBox="0 0 24 24"><title>Descriptions</title><path id="Descriptions" class="cls-1" d="M45 79H27a1 1 0 1 1 0-2h18a1 1 0 1 1 0 2zm-18 2h14a1 1 0 1 1 0 2H27a1 1 0 1 1 0-2zm0 4h18a1 1 0 0 1 0 2H27a1 1 0 0 1 0-2zm0 4h14a1 1 0 0 1 0 2H27a1 1 0 0 1 0-2z" transform="translate(-24 -72)"/></symbol><symbol id="icon-24-4" viewBox="0 0 24 24"><title>map</title><path id="map" class="cls-1" d="M47.5 90.835l-7 3.985c-.014.008-.031 0-.046.012a.925.925 0 0 1-.871.02c-.009 0-.019 0-.027-.006L32.031 91.1 25.5 94.82a1 1 0 0 1-1.5-.865v-15.94a1 1 0 0 1 .5-.865l7-3.985c.015-.009.033-.006.048-.013a.982.982 0 0 1 .352-.1c.028 0 .053-.016.08-.016h.015a.987.987 0 0 1 .42.1c.009 0 .018 0 .027.006l7.522 3.747 6.536-3.724a1 1 0 0 1 1.5.865v15.94a1 1 0 0 1-.5.865zM31 75.747l-5 2.846v13.645l5-2.846V75.747zm2 13.607l6 2.989V78.631l-6-2.989v13.712zm13-13.607l-5 2.847v13.644l5-2.846V75.747z" transform="translate(-24 -72)"/></symbol></svg>