<svg xmlns="http://www.w3.org/2000/svg"><symbol id="icon-70-1" viewBox="0 0 70 70"><title>icon-1</title><path id="room" class="cls-1" d="M66 54a1 1 0 0 1 1 1v8a1 1 0 0 1-1 1h-1v2h-2v-2h-8v2h-2v-2h-1a1 1 0 0 1-1-1v-8a1 1 0 0 1 1-1h4V44h-5l4-12h8l4 12h-5v10h4zm-2-12l-3-8h-4l-3 8h10zm-6 2v10h2V44h-2zm-2 12h-3v6h12v-6h-9zm1 2h4v2h-4v-2zm-12 8H5a2 2 0 0 1-2-2V50a2 2 0 0 1 2-2h4v-4a2 2 0 0 1 2-2h13a1.979 1.979 0 0 1 1 .278A1.979 1.979 0 0 1 26 42h14a2 2 0 0 1 2 2v4h3a2 2 0 0 1 2 2v14a2 2 0 0 1-2 2zM24 45a1 1 0 0 0-1-1H12a1 1 0 0 0-1 1v3h13v-3zm16 0a1 1 0 0 0-1-1H27a1 1 0 0 0-1 1v3h14v-3zm5 6a1 1 0 0 0-1-1H6a1 1 0 0 0-1 1v7h40v-7zm0 9H5v3a1 1 0 0 0 1 1h38a1 1 0 0 0 1-1v-3z"/></symbol><symbol id="icon-70-2" viewBox="0 0 70 70"><title>icon-2</title><path id="hotel" class="cls-1" d="M46 66H6V13h58v53H46zm-20-2h18v-6H26v6zm36-49H8v49h16v-8h22v8h16V15zM42 29V19h6v2h-4v2h4v2h-4v2h4v2h-6zm10-2h4v2h-6V19h2v8zm4 12h-6v-6h6v6zm0 12h-6v-6h6v6zM38 29h-2v-8h-2v-2h6v2h-2v8zM26 45h6v6h-6v-6zm0-12h6v6h-6v-6zm4-12h2v6h-2v-6zm0 8h-4v-2h4v2zm-6-2v-6h2v6h-2zm2-8h4v2h-4v-2zm-6 6h-4v4h-2V19h2v4h4v-4h2v10h-2v-4zm0 14h-6v-6h6v6zm0 12h-6v-6h6v6zm24-12h-6v-6h6v6zm0 12h-6v-6h6v6z"/></symbol><symbol id="icon-70-3" viewBox="0 0 70 70"><title>icon-3</title><path id="apartaments" class="cls-1" d="M65.574 36.02L63 34.343V66h-2V33.039L35.061 16.131 9 33.234V66H7V34.546l-3.293 2.161-1.414-1.414L7 32.2V32h.311l26.982-17.707.407.407.723-.723L67.02 34.574zM19 46h7v-5a1 1 0 0 1 1-1h16a1 1 0 0 1 1 1v5h7a1 1 0 0 1 1 1v15h-2v4H40v-4H30v4H20v-4h-1a1 1 0 0 1-1-1V47a1 1 0 0 1 1-1zm23 6V42H28v12h14v-2zm0 12h6v-2h-6v2zm-20 0h6v-2h-6v2zm-2-4h30V48h-6v8H26v-8h-6v12z"/></symbol><symbol id="icon-70-4" viewBox="0 0 70 70"><title>icon-4</title><path id="office" class="cls-1" d="M59 40.062v26h-2v-26H47v26h-2v-26H31v-2h30v2h-2zm-6-18h-2.236l-2.8 10.263-1.929-.525L49 20.928v-.866h.236L52.035 9.8l1.929.526-2.655 9.737H55v16h-2v-14zm-22 13.5l-6-4.5v14.5a2.512 2.512 0 0 1-.05.5H35v18h4v2h-6v-18H17.5a2.5 2.5 0 0 1-2.5-2.5v-15a2.5 2.5 0 0 1 2.5-2.5h5a2.488 2.488 0 0 1 1.727.7l.373-.5 7.734 5.8H41v2H31v-.5zm-8-4a1.5 1.5 0 0 0-1.5-1.5h-3a1.5 1.5 0 0 0-1.5 1.5v13a1.5 1.5 0 0 0 1.5 1.5h3a1.5 1.5 0 0 0 1.5-1.5v-13zM22.5 25a5.5 5.5 0 1 1 5.5-5.5 5.5 5.5 0 0 1-5.5 5.5zm0-9a3.5 3.5 0 1 0 3.5 3.5 3.5 3.5 0 0 0-3.5-3.5zM29 54.063H19v6h4v6h-2v-4h-6v4h-2v-6h4v-6H9v-20h2v18h18v2z"/></symbol><symbol id="icon-70-5" viewBox="0 0 70 70"><title>icon-5</title><path id="shop" class="cls-1" d="M63 29v5h-.025a6.5 6.5 0 0 1-3.017 5h.2A3.721 3.721 0 0 1 60 40v24a2 2 0 0 1-2 2H12a2 2 0 0 1-2-2V39.493A6.5 6.5 0 0 1 6.025 34H6v-5h.01c0-.579-.01-1-.01-1a.793.793 0 0 1 .041-.085l.329-.486 6.636-11.17.57-.866c.006-.011.411-.393.424-.393h41c.012 0 .994-.01 1 0l.847 1.259L63.271 29H63zM17.992 45.375v18L18 64h9.62a3.462 3.462 0 0 0 .38 0V44c0-.022-.951-.013 0 0H18c-.022 0-.008 1.353-.008 1.375zM12 64h4V44a2 2 0 0 1 2-2h10c1.227.452 2.037.688 2 2v20l-.066-.616A5.343 5.343 0 0 0 30 64h27s1 .022 1 0V39.806a6.376 6.376 0 0 1-7-2.853A6.545 6.545 0 0 1 48.937 39h.387a7.093 7.093 0 0 1-1.035.356A6.451 6.451 0 0 1 40 36.953a6.471 6.471 0 0 1-8.581 2.261A7.4 7.4 0 0 1 30.59 39h.473A6.545 6.545 0 0 1 29 36.953a6.433 6.433 0 0 1-6.456 2.971A5.857 5.857 0 0 1 18.631 39h1.432A6.545 6.545 0 0 1 18 36.953 6.489 6.489 0 0 1 12.5 40c-.171 0-.332-.035-.5-.048V64zm43-47a1.068 1.068 0 0 1-1 0H15L8.245 29H8v5h.029a4.5 4.5 0 0 0 8.941 0h2.059a4.5 4.5 0 0 0 8.941 0h2.059a4.5 4.5 0 0 0 8.941 0h2.059a4.5 4.5 0 0 0 8.941 0h2.059a4.5 4.5 0 0 0 8.941 0H61v-5zM36 42h16a2 2 0 0 1 2 2v9a2 2 0 0 1-2 2H36c-1.1 0-2.079-.52-2.079-1.625L34 44a2 2 0 0 1 2-2zm0 11h16l-.136-7.625c0-.022.158-1.375.136-1.375H36c-.022 0-.086 1.353-.086 1.375zm-8 11h-.38c-.398-.01-.82-.03.38 0z"/></symbol><symbol id="icon-70-6" viewBox="0 0 70 70"><title>icon-6</title><path id="bruto" class="cls-1" d="M64 48.084V65h-.3l-.338 1.011L45.88 60.21l-16.272 1.642-.033.155-.46-.107-.923.1-.031-.313L12 57.965l.209-.965H12v-8.035c.227.02.455.035.688.035A8.007 8.007 0 0 0 14 48.883v7.471l14 3.221V47h2v12.8l15.56-1.57.081-.244.359.122V46h2v12.772l14 4.647V49.561l-12-3.984v-2.141l12 3.983V33.56l-12-3.983v-2.141l12 3.983v-9.858L53.982 18.9a7.941 7.941 0 0 0 .754-1.892L64 20.084l-.3.916h.3v27.083zM46 25v-2.069a7.27 7.27 0 0 0 2 0V26h-2v-1zm0 5.2V28h2v4h-2v-1.8zm2 12.574V44h-2v-4h2v2.772zM46 34h2v4h-2v-4zm1-13a6 6 0 1 1 6-6 6 6 0 0 1-6 6zm0-10a4 4 0 1 0 4 4 4 4 0 0 0-4-4zm-7.312 33.835v-2.01L44 42.389V44h-4v.8zM34 45.409V45h-2v-1.4l5.687-.574v2.01zM30 43.8V45h-2v-2h2v.8zM26 45h-1.806l-4.113-.946A7.944 7.944 0 0 0 20.6 42.1l5.4 1.245V45zm4-27.187V29.8l14-1.41v2.01l-14 1.413V41h-2v-9.354l-14-3.221v4.692A8.007 8.007 0 0 0 12.688 33c-.232 0-.46.015-.687.035V13h.209l.216-1.008L29.3 15.874l9.707-.98C39 14.929 39 14.964 39 15a7.992 7.992 0 0 0 .232 1.881zm-2-.167l-14-3.22v11.93l14 3.221V17.645zM19 41a6 6 0 1 1-6-6 6 6 0 0 1 6 6zM9 41a4 4 0 1 0 4-4 4 4 0 0 0-4 4z"/></symbol><symbol id="icon-70-7" viewBox="0 0 70 70"><title>icon-7</title><path id="rule" class="cls-1" d="M57 18h-4v4h-2v-4h-4v4h-2v-4h-4v4h-2v-4h-4v4h-2v-4h-4v4h-2v-4h-4v8h-2V16h38v10h-2v-8zM39.984 29.74l1.345-1.48 20 16-1.346 1.48L57 43.353V64H27V43.033l-4.947 3.957-1.381-1.514 19.494-15.59zM29 41.434V62h26V41.753L41.8 31.2zM9 64V28h10v2h-8v4h4v2h-4v4h4v2h-4v4h4v2h-4v4h4v2h-4v4h4v2h-4v4h8v2H9v-2z"/></symbol></svg>