<svg xmlns="http://www.w3.org/2000/svg" width="101" height="67" viewBox="0 0 101 67"><defs><style>.cls-1{fill:#01244e;fill-rule:evenodd}</style></defs><path id="logo" class="cls-1" d="M215 50a7.831 7.831 0 0 1 7.99 7.607L223 63h-39V37l4.571-7.995V28.5L202.941 4h18.284v4.524A7.248 7.248 0 0 1 214 16h-15v10h14v12h-14v12h16zM163.424 4h22.8l-11.4 21.017zM166 38v25h-15l-14-23.721V55a8.176 8.176 0 0 1-8 8h-7V4h15v.779l14 29.351V12zm-41.563 32.374h.013a51.953 51.953 0 0 1-.033-1.545v-2.87h.4v4.946h-.543c-1.635-3.812-1.772-4.188-1.883-4.521h-.013c.013.241.019.822.019 1.233v3.288H122v-4.946h.615c1.573 3.678 1.704 4.032 1.822 4.415zm3.682-2.034h.013c.118-.269.419-.928 1.119-2.381h.464l-1.386 2.785v2.161h-.419v-2.147l-1.406-2.8h.484a58.905 58.905 0 0 1 1.131 2.382zm5.272-1.991h-1.57v1.786h1.485v.39h-1.485V70.5h1.622v.4h-2.034v-4.941h1.982v.39zm2.714 2.182a1.42 1.42 0 0 1-.935-1.368 1.2 1.2 0 0 1 1.223-1.29 1.858 1.858 0 0 1 .785.156l-.052.439a1.458 1.458 0 0 0-.72-.192.8.8 0 0 0-.811.836 1.089 1.089 0 0 0 .759 1.02 1.552 1.552 0 0 1 .994 1.438 1.281 1.281 0 0 1-1.3 1.417 2.022 2.022 0 0 1-.863-.184l.046-.468a1.6 1.6 0 0 0 .8.227.839.839 0 0 0 .876-.936 1.18 1.18 0 0 0-.807-1.095zm4.716-2.572l1.491 4.946h-.451l-.4-1.353h-1.811l-.412 1.353h-.425l1.53-4.946h.477zm.536 3.2c-.595-2.055-.712-2.523-.778-2.827h-.013c-.065.3-.19.772-.811 2.827h1.6zm4.049.857h.013c.046-.255.19-.928.955-4.06h.876l-1.366 4.946h-.984l-1.354-4.946h.909c.775 3.144.912 3.808.951 4.063zm5.3-4.06l1.465 4.946h-.883l-.32-1.183h-1.531l-.34 1.183h-.837l1.5-4.946h.94zm.094 3.064c-.406-1.5-.517-1.984-.576-2.31h-.013c-.059.326-.177.808-.608 2.31h1.2zm3.865 1.162h1.459v.723h-2.309v-4.946h.85v4.223zm4.631-4.316c1.157 0 1.818 1.02 1.818 2.551 0 1.6-.661 2.579-1.844 2.579s-1.844-.985-1.844-2.537.674-2.592 1.866-2.592zm-.026 4.394c.6 0 .968-.694.968-1.807 0-1.183-.354-1.871-.968-1.871s-.975.7-.975 1.857c-.004 1.12.356 1.821.971 1.821zm6.514-3a1.127 1.127 0 0 1-.9 1.176v.007a.882.882 0 0 1 .6.751l.543 1.708h-.9l-.438-1.474a.65.65 0 0 0-.706-.638h-.164v2.112h-.837v-4.943h.988c1.006 0 1.81.213 1.81 1.304zm-1.975.872h.216a.749.749 0 0 0 .915-.758c0-.539-.346-.723-.961-.723h-.17v1.481zm6.377-1.453h-1.576v1.332h1.484v.709h-1.484v1.453h1.661v.73h-2.5v-4.944h2.413v.723zm2.786 2.013a1.46 1.46 0 0 1-1.007-1.417 1.353 1.353 0 0 1 1.459-1.41 2.471 2.471 0 0 1 .954.17l-.072.751a1.658 1.658 0 0 0-.817-.206.6.6 0 0 0-.667.6.9.9 0 0 0 .713.808 1.573 1.573 0 0 1 1.066 1.474A1.437 1.437 0 0 1 173.067 71a2.842 2.842 0 0 1-1.073-.2l.072-.8a2.013 2.013 0 0 0 .955.248.627.627 0 0 0 .706-.659 1.008 1.008 0 0 0-.759-.895zm5.305-2.778a2.131 2.131 0 0 1 .582.078l-.033.425a1.568 1.568 0 0 0-.53-.092c-1.007 0-1.523.978-1.523 2.083 0 1.254.6 2.119 1.517 2.119a1.4 1.4 0 0 0 .543-.1l.032.432a2.175 2.175 0 0 1-.575.085c-1.21 0-1.969-1.013-1.969-2.544-.004-1.463.762-2.484 1.952-2.484zm3.767-.043c1.014 0 1.583 1 1.583 2.523 0 1.6-.563 2.593-1.622 2.593-1.04 0-1.622-1-1.622-2.551-.004-1.577.585-2.562 1.657-2.562zM182 70.572c.752 0 1.177-.858 1.177-2.147s-.405-2.147-1.17-2.147-1.191.886-1.191 2.133c.001 1.304.426 2.161 1.184 2.161zm5.893-3.359a1.131 1.131 0 0 1-.974 1.191v.014a.812.812 0 0 1 .627.68l.628 1.807h-.464l-.556-1.651a.775.775 0 0 0-.85-.673h-.262v2.324h-.418v-4.946h.667c.936 0 1.603.255 1.603 1.254zm-1.851-.864v1.863h.282a.944.944 0 0 0 1.131-.971c0-.673-.419-.893-1.223-.893h-.19zm6.24.978a1.4 1.4 0 0 1-1.655 1.417h-.2v2.161h-.419v-4.946h.654c.838 0 1.621.234 1.621 1.368zm-1.864-.978v2.005h.163a1.023 1.023 0 0 0 1.263-1.027.987.987 0 0 0-1.223-.978h-.2zm5.226-.475c1.013 0 1.582 1 1.582 2.523 0 1.6-.562 2.593-1.622 2.593-1.039 0-1.621-1-1.621-2.551.001-1.58.589-2.565 1.662-2.565zm-.04 4.7c.753 0 1.178-.858 1.178-2.147s-.406-2.147-1.171-2.147-1.19.886-1.19 2.133c.001 1.302.426 2.159 1.184 2.159zm5.893-3.359a1.131 1.131 0 0 1-.974 1.191v.014a.813.813 0 0 1 .628.68l.628 1.807h-.465l-.555-1.651a.776.776 0 0 0-.851-.673h-.261v2.324h-.419v-4.948h.672c.931 0 1.6.255 1.6 1.254zm-1.85-.864v1.863h.281a.944.944 0 0 0 1.131-.971c0-.673-.418-.893-1.223-.893h-.189zm5.494-.39l1.491 4.946h-.452l-.4-1.353h-1.812l-.412 1.353h-.425l1.53-4.946h.478zm.536 3.2c-.595-2.055-.713-2.523-.778-2.827h-.013c-.066.3-.19.772-.811 2.827h1.6zm4.369-3.245a2.126 2.126 0 0 1 .582.078l-.033.425a1.567 1.567 0 0 0-.529-.092c-1.007 0-1.524.978-1.524 2.083 0 1.254.6 2.119 1.517 2.119a1.4 1.4 0 0 0 .543-.1l.033.432a2.183 2.183 0 0 1-.576.085c-1.21 0-1.968-1.013-1.968-2.544.001-1.465.766-2.486 1.956-2.486zm2.885 4.989h-.419v-4.946h.419v4.946zm3.434-5.315l.516-1.006h.445l-.68 1.006h-.281zm.235.284c1.014 0 1.582 1 1.582 2.523 0 1.6-.562 2.593-1.621 2.593-1.04 0-1.622-1-1.622-2.551.001-1.58.589-2.565 1.661-2.565zm-.039 4.7c.752 0 1.177-.858 1.177-2.147s-.406-2.147-1.171-2.147-1.19.886-1.19 2.133c.001 1.302.423 2.159 1.185 2.159zm6.056-.2h.013a51.953 51.953 0 0 1-.033-1.545v-2.87H223v4.946h-.542c-1.635-3.812-1.773-4.188-1.884-4.521h-.013c.013.241.02.822.02 1.233v3.288h-.393v-4.946h.612c1.57 3.678 1.7 4.032 1.818 4.415z" transform="translate(-122 -4)"/></svg>